HIERARCHY
ROOT Hips
{
	OFFSET -3.958830 18.904000 13.208200
	CHANNELS 6 Xposition Yposition Zposition Zrotation Yrotation Xrotation 
	JOINT LHipJoint
	{
		OFFSET 0.000000 0.000000 0.000000
		CHANNELS 3 Zrotation Yrotation Xrotation
		JOINT LeftUpLeg
		{
			OFFSET 1.800000 -1.400000 0.085000
			CHANNELS 3 Zrotation Yrotation Xrotation
			JOINT LeftLeg
			{
				OFFSET 2.215000 -6.000000 0.000000
				CHANNELS 3 Zrotation Yrotation Xrotation
				JOINT LeftFoot
				{
					OFFSET 2.500000 -6.900000 0.000000
					CHANNELS 3 Zrotation Yrotation Xrotation
					JOINT LeftToeBase
					{
						OFFSET 0.200000 -0.500000 1.950000
						CHANNELS 3 Zrotation Yrotation Xrotation
						End Site
						{
							OFFSET 0.000000 0.000000 0.000000
						}
					}
				}
			}
		}
	}
	JOINT RHipJoint
	{
		OFFSET 0.000000 0.000000 0.000000
		CHANNELS 3 Zrotation Yrotation Xrotation
		JOINT RightUpLeg
		{
			OFFSET -1.800000 -1.400000 0.085000
			CHANNELS 3 Zrotation Yrotation Xrotation
			JOINT RightLeg
			{
				OFFSET -2.215000 -6.000000 0.000000
				CHANNELS 3 Zrotation Yrotation Xrotation
				JOINT RightFoot
				{
					OFFSET -2.500000 -6.900000 0.000000
					CHANNELS 3 Zrotation Yrotation Xrotation
					JOINT RightToeBase
					{
						OFFSET -0.200000 -0.500000 1.950000
						CHANNELS 3 Zrotation Yrotation Xrotation
						End Site
						{
							OFFSET 0.000000 0.000000 0.000000
						}
					}
				}
			}
		}
	}
	JOINT LowerBack
	{
		OFFSET 0.000000 0.000000 0.000000
		CHANNELS 3 Zrotation Yrotation Xrotation
		JOINT Spine
		{
			OFFSET -0.087000 1.940000 -0.288900
			CHANNELS 3 Zrotation Yrotation Xrotation
			JOINT Spine1
			{
				OFFSET 0.000000 1.950000 0.060000
				CHANNELS 3 Zrotation Yrotation Xrotation
				JOINT Neck
				{
					OFFSET 0.000000 0.000000 0.000000
					CHANNELS 3 Zrotation Yrotation Xrotation
					JOINT Neck1
					{
						OFFSET 0.000000 1.600000 0.340000
						CHANNELS 3 Zrotation Yrotation Xrotation
						JOINT Head
						{
							OFFSET 0.000000 1.667000 -0.240000
							CHANNELS 3 Zrotation Yrotation Xrotation
							End Site
							{
								OFFSET 0.000000 0.000000 0.000000
							}
						}
					}
				}
				JOINT LeftShoulder
				{
					OFFSET 0.000000 0.000000 0.000000
					CHANNELS 3 Zrotation Yrotation Xrotation
					JOINT LeftArm
					{
						OFFSET 2.700000 1.550000 -0.730000
						CHANNELS 3 Zrotation Yrotation Xrotation
						JOINT LeftForeArm
						{
							OFFSET 5.450000 0.000000 0.000000
							CHANNELS 3 Zrotation Yrotation Xrotation
							JOINT LeftHand
							{
								OFFSET 3.450000 0.000000 0.000000
								CHANNELS 3 Zrotation Yrotation Xrotation
								JOINT LeftHandIndex1
								{
									OFFSET 0.750000 0.000000 0.000000
									CHANNELS 3 Zrotation Yrotation Xrotation
									End Site
									{
										OFFSET 0.000000 0.000000 0.000000
									}
								}
							}
						}
					}
				}
				JOINT RightShoulder
				{
					OFFSET 0.000000 0.000000 0.000000
					CHANNELS 3 Zrotation Yrotation Xrotation
					JOINT RightArm
					{
						OFFSET -2.700000 1.550000 -0.730000
						CHANNELS 3 Zrotation Yrotation Xrotation
						JOINT RightForeArm
						{
							OFFSET -5.450000 0.000000 0.000000
							CHANNELS 3 Zrotation Yrotation Xrotation
							JOINT RightHand
							{
								OFFSET -3.450000 0.000000 0.000000
								CHANNELS 3 Zrotation Yrotation Xrotation
								JOINT RightHandIndex1
								{
									OFFSET -0.750000 0.000000 0.000000
									CHANNELS 3 Zrotation Yrotation Xrotation
									End Site
									{
										OFFSET 0.000000 0.000000 0.000000
									}
								}
							}
						}
					}
				}
			}
		}
	}
}
MOTION
Frames: 4
Frame Time: 0.016667
-0.587600 16.621600 -1.038920 -3.492083 -7.512990 2.632244 -14.801166 12.279434 2.924344 18.862671 -1.752712 -23.995537 -5.742224 10.424762 31.866656 -0.110850 6.529293 2.151898 0.498210 0.250450 0.552730 18.642656 -11.376204 2.940094 -15.976547 3.390309 -27.145209 11.099646 -10.606119 32.546373 -0.357219 -5.725289 2.369397 0.172970 0.067390 0.126650 -4.591774 1.254747 -7.454894 13.639366 1.242121 9.571492 1.491746 0.223844 6.184356 1.501948 10.619453 -8.584670 20.006464 -11.038834 34.122659 -5.174070 0.781560 -1.174090 -10.627955 -4.966265 3.886025 -18.987836 6.973368 -7.058753 33.662674 -49.707957 -12.267931 -3.560150 3.099134 0.228210 0.200800 -0.057650 0.160080 8.356145 -1.787754 1.395496 64.985384 12.558453 -2.471770 13.369895 29.525320 0.610101 2.242377 -1.635140 -0.099880 0.034620 -0.267660 -0.226160 
-0.622080 16.610480 -1.044570 -3.625300 -8.026204 2.894054 -14.771144 12.187461 2.938686 19.174625 -1.715039 -24.289644 -5.746634 10.501876 32.078267 -0.093086 6.566863 2.130320 0.515880 0.266930 0.565580 18.680107 -11.368206 3.009204 -15.970940 3.610607 -27.531218 11.735225 -10.836037 32.611646 -0.378806 -5.798065 2.338940 0.175940 0.051540 0.140100 -4.691866 1.447001 -7.497619 14.752572 1.319546 9.720945 1.506667 0.392624 5.722252 1.604891 10.925386 -8.682084 20.899483 -11.791691 33.655001 -5.288920 0.370710 -1.001310 -11.154844 -5.199812 3.964263 -19.238361 6.853534 -6.946465 32.709617 -48.620457 -11.503217 -3.564938 3.134971 0.220260 0.197360 -0.047730 0.164960 8.583842 -1.626035 1.347248 65.311446 12.741940 -2.168600 12.392742 28.283280 0.312454 2.257644 -1.641772 -0.079970 0.013840 -0.281960 -0.222540 
-0.653830 16.602250 -1.047740 -3.469171 -8.202608 3.156162 -14.753766 12.108042 2.966930 19.193767 -1.797948 -24.709838 -5.796401 10.594017 32.440369 -0.057425 6.618256 2.110836 0.506630 0.258330 0.551920 18.706099 -11.351001 3.055948 -16.169141 3.680828 -27.902623 12.220997 -11.036456 32.612326 -0.380720 -5.860128 2.310606 0.162970 0.053430 0.146870 -4.759093 1.566698 -7.533848 15.360136 1.412795 9.671897 1.500784 0.557855 5.373144 1.521147 10.944217 -8.743655 21.012186 -12.063014 33.414836 -5.077780 0.001080 -0.316230 -11.262686 -5.454748 4.004460 -19.855257 6.094972 -6.964219 33.248689 -48.151690 -11.590724 -3.568747 3.152378 0.196400 0.199850 -0.056830 0.162780 8.750765 -1.294348 1.377662 65.770131 12.769223 -1.990579 11.164560 26.981681 -0.029314 2.281836 -1.646330 -0.062590 -0.007860 -0.279700 -0.210140 
-0.674880 16.601560 -1.049490 -3.377145 -8.053157 3.317838 -14.732553 12.056957 3.000218 19.233334 -1.888768 -25.014742 -5.890198 10.608924 32.519534 -0.050162 6.640469 2.100238 0.484580 0.226230 0.527690 18.728359 -11.358608 3.074060 -16.175529 3.689204 -28.049119 12.349749 -11.132034 32.619157 -0.375909 -5.884660 2.301542 0.139940 0.061930 0.155810 -4.825304 1.656467 -7.569953 16.032654 1.501163 9.602419 1.406654 0.762604 5.206053 1.369073 10.795695 -8.967570 20.727693 -12.128700 33.638369 -4.879060 -0.288670 0.248660 -10.855218 -6.002070 4.120131 -21.069157 4.880879 -7.162656 34.946477 -48.070003 -12.375007 -3.565997 3.132432 0.195140 0.203440 -0.068500 0.155710 8.485927 -0.616327 1.671595 66.385104 12.623843 -2.053245 9.977744 25.967472 -0.325900 2.287084 -1.639601 -0.059330 -0.022800 -0.259930 -0.207500 
